<?xml version="1.0" encoding="UTF-8"?>
<svg xmlns="http://www.w3.org/2000/svg" id="Layer_1" data-name="Layer 1" viewBox="0 0 841.89 595.28">
  <defs>
    <style>
      .cls-1 {
        fill: #cb2026;
      }

      .cls-1, .cls-2, .cls-3, .cls-4 {
        stroke-width: 0px;
      }

      .cls-1, .cls-3 {
        fill-rule: evenodd;
      }

      .cls-2, .cls-5 {
        fill: #77787b;
      }

      .cls-5 {
        stroke: #77787b;
        stroke-miterlimit: 10;
        stroke-width: .25px;
      }

      .cls-3, .cls-4 {
        fill: #414042;
      }
    </style>
  </defs>
  <path class="cls-4" d="m819.64,428.29c1.87-10.71,2.19-21.27-4.02-29.39-4.6-6.13-12.19-9.82-22.01-9.82-23.59,0-42.43,15.62-46.62,39.38-4.34,24.5,8.49,39.52,32.85,39.52,8.89,0,19.9-1.53,28.65-5.22,1.25-.58,3.88-1.51,3.88-1.51l-1.59-16.8s-2.92,1-3.58,1.32c-6.55,2.44-13.28,3.97-19.99,3.97-9.37,0-17-5.36-17.12-15.01l48.28-.05,1.27-6.4Zm-46.7-8.11c2.35-7.2,8.49-13.33,16.15-13.33s10.62,6.75,9.44,13.33h-25.59Z"></path>
  <path class="cls-4" d="m740.14,409.91c2.61,0,6.7.85,6.7.85l6.7-19.97s-1.08-.73-1.88-.93c-1.34-.31-2.97-.63-4.19-.63-9.03,0-14.2,3.24-20.87,9.82l1.22-7.67h-21.44l-13.29,74.61h23.07l8.85-50.1c4.5-3.83,10.11-5.98,15.14-5.98Z"></path>
  <path class="cls-4" d="m688.04,450.49h-4.38c-1.7.01-2.12-1.06-1.85-2.58l10-56.53h-21.15l-1.44,6.42c-2.41-4.59-8.59-8.57-17.18-8.57-16.86,0-36.14,13.79-40.91,40.9-3.63,20.38,3.58,37.85,25.64,37.85,7.5,0,18.06-4.29,23.03-9.04h.31c1.22,4.44,4.44,7.05,13.48,7.05h11.76l2.7-15.49Zm-28.34-7.48c-2.24,2.29-8.48,6.42-14,6.42-11.64,0-12.1-11.34-10.42-20.83,2.5-14.25,10.64-20.38,18.14-20.38,4.6,0,9.18,2.76,11.48,5.23l-5.2,29.56Z"></path>
  <path class="cls-4" d="m601.61,446.2l-3.19,1.1c-6.24,2.31-9.31,3.24-15.9,3.24-10.58,0-15.98-7.51-13.51-21.46,2.31-13.19,10.15-21.14,22.1-21.14,4.74,0,8.99,1.23,12.98,2.92.71.31,3.24,1.22,3.24,1.22l7.09-17.17s-1.44-.59-2.44-1.08c-6.65-3.04-13.37-4.13-20.57-4.13-24.35,0-41.98,15.78-46.36,40.61-4.29,24.2,7.5,38.14,30.8,38.14,9.03,0,15.48-.93,24.25-4.61.88-.39,3.24-1.57,3.24-1.57l-1.73-16.07Z"></path>
  <path class="cls-4" d="m522.57,429.22c4.05-22.82-5.14-39.52-31.01-39.52s-42,16.7-45.99,39.22c-4.01,22.83,5.14,39.53,31.04,39.53s42.01-16.7,45.97-39.23Zm-23.71-.14c-1.97,11.18-7.42,21.3-18.77,21.3s-12.75-10.26-10.74-21.6c1.97-11.18,7.38-20.98,18.72-20.98s12.78,9.96,10.79,21.29Z"></path>
  <path class="cls-4" d="m437.58,447.27s-2.95.81-3.92,1.11c-3.24.92-6.29,1.83-10.13,1.83-6.75,0-6.93-4.9-5.53-12.87l5.26-29.87h20.21l2.92-15.62h-20.38l4.36-22.11-23.69,2.53-3.51,19.58h-10.68l-2.56,15.62h10.34l-5.19,29.41c-2.22,12.57-3.01,18.82.85,24.66,3.29,4.9,9.82,6.91,18.42,6.91,7.03,0,14.03-1.38,20.3-3.99,1.31-.56,3.09-1.13,3.09-1.13l-.17-16.07Z"></path>
  <path class="cls-2" d="m692.47,326.33c.12-.45-.24-.6-.6-.6h-15.07c-.45,0-.71.16-.79.6l-.29,1.73c-.07.5.05.71.56.71h5.51l-2.92,16.66c-.1.52-.05.67.48.67h2.58c.51,0,.66-.14.75-.7l2.92-16.63h5.33c.54,0,.85-.09,1-.62l.54-1.82Z"></path>
  <path class="cls-2" d="m715.29,326.36c.04-.48-.08-.64-.56-.64h-1.73c-.54,0-.8.18-1.08.64l-8.76,14.54h-.08l-4.21-14.54c-.13-.46-.31-.64-.9-.64h-1.73c-.46,0-.76.16-.85.77l-4.04,18.8c-.13.58.04.8.63.8h1.99c.54,0,.79-.1.9-.75l2.41-12.19h.06l3.4,12.36c.09.47.37.58.8.58h1.05c.31,0,.6-.08.88-.56l7.18-12.37h.07l-1.7,11.95c-.07.67,0,.98.62.98h2.39c.48,0,.75-.33.83-.8l2.44-18.93Z"></path>
  <path class="cls-5" d="m615.12,348.16c-17.32,0-29.66-4.71-35.77-13.59-7.86-11.08-6.11-23.61-2.04-46.6l11.52-65.29h-20.92l5.23-29.1h20.83l7.03-39.26,41.47-4.89-7.86,44.15h40.04l-5.31,29.1h-39.87l-11.93,67.78c-1.56,8.77-2.07,15.1.12,19.37,1.27,2.46,3.7,5.31,11.36,5.31,7.18,0,13.59-1.7,19.46-3.55l.12-.04c1-.23,4.75-1.39,6.13-1.81l2.48-.79.62,29.5-1.3.48s-3.5,1.31-5.54,2.1c-11.55,4.52-24.64,7.12-35.86,7.12Z"></path>
  <path class="cls-5" d="m546.09,348.44h-40.74l16.32-92.63c1.87-10.58,1.17-17.39-2.24-21.46-2.7-3.19-7.12-4.73-13.51-4.73-10.81,0-26.32,5.74-37.16,13.7l-18.52,105.12h-40.59l38.05-216.17,41.56-5.44-14.22,80.86c13.71-8.66,32.07-14.1,48.04-14.1s26.37,4.22,33.36,12.56c8.03,9.56,10.37,24.37,6.89,43.99l-17.24,98.31Z"></path>
  <path class="cls-5" d="m70.51,348.71H27.39l.42-2.35s.97-5.22,1.38-7.56l34.09-193.35c.63-3.47,1.7-8.78,1.7-8.82l.31-1.6h54.51c22.26,0,53.52,2.42,67.98,23.28,7.86,11.46,10.42,26.62,7.38,43.9-4.84,27.49-22.66,49.61-49.01,60.99l15.85,33.61-33.5,29.48-23.93-54.87h-20.39l-12.01,68.08c-.39,2.15-1.39,7.59-1.39,7.59l-.26,1.63Zm19.52-110.63h16.46c24.22,0,41.03-13.44,45-35.97,1.82-10.21.43-18.11-4.12-23.49-5.53-6.62-16.15-9.95-31.6-9.95h-13.49l-12.26,69.4Z"></path>
  <path class="cls-3" d="m21.14,394.58c-.39-.85.94-.83,1.19-.94,19.37-10.58,39.17-21.19,57.19-33.44,18.63-12.61,36.4-26.06,53.47-40.27,25.69-21.39,48.84-44.67,71.1-69.47,7.55-8.39,15.47-16.65,22.83-25.18.22-.03.25.09.25.22-.05.21.09.22.22.25-4.22,18.89-9.31,37.29-14.1,55.81-1.59,5.99-2.44,12.83-4.97,18.13-1.28,2.71-5.6,6.4-8.47,9.19-20.82,20.39-46.14,36.47-72.75,50.61-15.52,8.26-32.11,15.4-49.21,21.43-17.54,6.19-35.88,12.22-56.76,13.66Z"></path>
  <path class="cls-1" d="m269.01,213.6c.39,3.13-.56,6.42-1.17,9.41-9.54,46.66-22.37,92.78-34.84,137.03,27.89-20.39,56.99-41.89,88.5-60.96,22.94-13.87,49.57-25.57,77.23-35.31,18.63-6.59,37.79-12.33,59.12-16.03,10.51-1.82,21.47-3.21,32.72-4.69,56.86-7.54,119.13-3.28,171.91,5.87,10.6,1.85,21.5,3.36,31.07,6.34,6.74,2.12,12.56,6.59,18.14,10.6,2.73,1.99,5.6,3.95,8.23,6.12,2.48,2.07,5.74,4.23,6.37,7.54-38.05-7.09-77.12-13.33-120.33-14.82-28.99-1.01-59.63-.38-86.41,2.58-13.34,1.48-26.12,4.17-38.61,6.59-49.66,9.69-92.55,27.67-130.21,50.62-18.82,11.48-37.33,23.27-54.4,36.02-25.56,19.1-51.79,38.14-74.65,61-3.63,3.63-7.47,6.91-11.52,11.05-3.08,3.14-8.07,10.55-11.54,11.06-3.24.47-7.75-1.44-10.84-2.81-6.25-2.75-12.33-6.33-17.67-10.38-2.12-1.61-6.36-4.38-6.58-7.29-.21-2.86,3.58-8.1,5.19-11.3,27.14-54.92,41.25-122.45,58.35-186.95,13.88-3.87,27.81-7.68,41.93-11.3Z"></path>
  <path class="cls-5" d="m312.26,420.1c-15.58,0-30.8-3.32-44.04-9.57-.76-.39-2.1-1.04-2.1-1.04l-1.76-.85,15.05-31.29,4.7,1.99c11.05,4.99,22.35,7.73,31.77,7.73,29.14,0,37.62-14.81,41.83-38.69l1.28-7.25c-11.14,7.52-27.16,12.89-39.33,12.89-19.1,0-33.96-6.23-43.07-18.04-10.42-13.03-13.91-33.07-9.79-56.4,3.75-21.27,13.49-41.07,27.46-55.63,15.49-16.21,34.87-24.8,55.96-24.8,7.27,0,14.8,1.74,21.81,5.05,4.48,2.03,8.68,5.36,11.67,9.12l2.67-10.51h37.72l-24.59,139.28c-9.25,52.48-37.82,78-87.24,78Zm38.84-187.61c-10.28,0-18.05,4.54-22.77,8.35-9.31,7.72-16.27,21.33-19.08,37.32-2.7,15.3-.85,27.64,5.26,34.75,3.92,4.77,10.71,7.5,18.57,7.5,11.52,0,25.13-6.82,31.97-13.54l10.79-61.11c-4.77-7.84-14.82-13.27-24.73-13.27Z"></path>
  <path class="cls-5" d="m253.23,197.31c-12.29,0-22.3-10.01-22.3-22.3s10-22.3,22.3-22.3,22.28,10,22.28,22.3-9.99,22.3-22.28,22.3Z"></path>
</svg>
